<?xml version="1.0" encoding="utf-8"?>
<!-- Generator: Adobe Illustrator 24.0.1, SVG Export Plug-In . SVG Version: 6.00 Build 0)  -->
<svg version="1.1" id="Layer_1" xmlns="http://www.w3.org/2000/svg" xmlns:xlink="http://www.w3.org/1999/xlink" x="0px" y="0px"
	 viewBox="0 0 1080 1080" style="enable-background:new 0 0 1080 1080;" xml:space="preserve">
<style type="text/css">
	.st0{fill:#434343;}
	.st1{fill:#FFFFFF;}
	.st2{fill:#E63550;}
	.st3{fill:#EFB82B;}
	.st4{fill:#262A6E;}
	.st5{fill:#4BC2D6;}
	.st6{fill:#5F56A0;}
</style>
<g>
	<g>
		<g>
			<path class="st2" d="M399.14,114.12l43.05,121.74l15.72-5.62c11.9-4.21,24.19-7.27,36.53-9.1l15.84-2.35L490,82.22l-15.83,2.35
				c-20.95,3.11-41.79,8.29-62.06,15.43l-15.73,5.85l2.89,8.22L399.14,114.12z"/>
			<path class="st3" d="M658.03,244.78c11.49,5.44,22.49,12.04,32.71,19.61l12.86,9.53l82.21-110.91l-12.86-9.53
				c-17.41-12.91-36.2-24.17-55.82-33.47l-14.47-6.86l-59.1,124.77L658.03,244.78z"/>
			<path class="st2" d="M307.65,358.85c5.46-11.5,12.08-22.51,19.65-32.71l9.54-12.85L226,231l-9.54,12.86
				c-12.92,17.4-24.19,36.16-33.5,55.78l-6.87,14.46l124.7,59.22L307.65,358.85z"/>
			<path class="st2" d="M369.54,279.51c9.38-8.49,19.65-16.08,30.53-22.57l13.75-8.2l-70.69-118.58l-13.75,8.2
				c-18.68,11.14-36.33,24.18-52.46,38.77l-11.87,10.74l92.62,102.37L369.54,279.51z"/>
			<g>
				<path class="st4" d="M786.85,395.14L786.85,395.14c4.26,12.06,7.35,24.52,9.17,37.03l2.31,15.84l136.61-19.91l-2.3-15.85
					c-3.12-21.4-8.38-42.64-15.63-63.14l-5.63-15.96l-130.16,46.03L786.85,395.14z"/>
			</g>
			<g>
				<path class="st4" d="M771.99,595.83c-5.48,11.5-12.11,22.49-19.7,32.68l-9.56,12.84l110.7,82.47l9.57-12.84
					c12.95-17.37,24.25-36.12,33.6-55.71l6.9-14.45l-124.6-59.44L771.99,595.83z"/>
			</g>
			<path class="st3" d="M737.41,306.58c8.5,9.38,16.11,19.65,22.6,30.52l8.21,13.74l118.51-70.8l-8.21-13.75
				c-11.15-18.66-24.21-36.3-38.82-52.42l-10.75-11.86l-102.29,92.7L737.41,306.58z"/>
			<path class="st5" d="M280.98,456.12c0.65-12.65,2.56-25.31,5.68-37.64l3.93-15.52L156.75,369.1l-3.93,15.52
				c-5.33,21.09-8.6,42.77-9.71,64.43l-0.82,15.99l137.87,7.07L280.98,456.12z"/>
			<path class="st3" d="M613.87,227.74L647.67,93.9l-15.52-3.92c-21.09-5.33-42.78-8.58-64.47-9.67l-15.99-0.8l-6.93,137.87
				l15.99,0.8c12.65,0.64,25.31,2.53,37.61,5.64L613.87,227.74z"/>
			<path class="st6" d="M621.87,724.1c-11.98,4.24-24.38,7.31-36.85,9.14l-15.84,2.32l20.02,136.6l15.84-2.32
				c21.28-3.12,42.45-8.37,62.95-15.62l15.22-5.49l-46.28-129.95L621.87,724.1z"/>
			<g>
				<path class="st4" d="M726.82,656.21l-14.7,13.26h0c-11.85,10.69-24.8,20.22-38.49,28.35l-16.21,9.63l187.22,293.04l15.19-9.02
					c23.28-13.82,45.27-30.02,65.38-48.14l12.5-11.27L726.82,656.21z"/>
			</g>
			<path class="st5" d="M293,559.14L293,559.14c-4.23-11.96-7.3-24.31-9.13-36.69l-2.33-15.84l-136.58,20.12l2.33,15.84
				c3.12,21.16,8.35,42.23,15.56,62.62l5.51,15.48l130.11-46.02L293,559.14z"/>
			<g>
				<path class="st4" d="M926.87,570.36c5.38-21.07,8.68-42.75,9.83-64.44l0.85-15.99l-137.86-7.29l-0.85,15.99
					c-0.67,12.66-2.6,25.31-5.74,37.6l-3.96,15.52l133.77,34.13L926.87,570.36z"/>
			</g>
			<path class="st6" d="M481.06,730.36l-15.52-3.93l-34.01,133.79l15.52,3.94c21.09,5.36,42.77,8.65,64.44,9.78l15.99,0.83
				l7.17-137.85l-15.98-0.84C506.02,735.41,493.37,733.49,481.06,730.36z"/>
			<path class="st5" d="M342.15,647.37L342.15,647.37c-8.49-9.41-16.08-19.7-22.56-30.58l-8.19-13.75l-118.61,70.62l8.19,13.75
				c11.12,18.68,24.15,36.34,38.72,52.48l10.73,11.88l102.47-92.52L342.15,647.37z"/>
			<path class="st6" d="M421.42,709.3c-11.47-5.45-22.47-12.06-32.67-19.65l-12.85-9.55L293.5,790.85l12.85,9.55
				c17.41,12.95,36.17,24.24,55.76,33.56l14.46,6.88l59.32-124.66L421.42,709.3z"/>
		</g>
	</g>
</g>
</svg>
